<svg xmlns="http://www.w3.org/2000/svg" width="512" height="512" fill="none"><path fill="#fff" d="M456 370c0 15-8 43-26 58-4 3-8 2-6-2 5-13 17-43 12-50-4-6-21-5-35-4l-17 2c-4 0-4-3 0-6 5-4 11-7 17-8 23-7 50-3 53 1 1 1 2 3 2 9Zm-38 26-17 11a294 294 0 0 1-343-37c-4-3-1-9 4-6a397 397 0 0 0 339 26l10-4c7-3 14 5 7 10ZM294 176c0-21 1-33-6-44-6-9-17-14-31-13-16 1-33 11-38 31-1 4-3 8-9 9l-48-6c-4-1-9-3-7-10 10-55 57-75 102-77h10c25 0 56 7 76 25 24 23 22 53 22 87v78c0 24 9 34 19 46 2 5 3 10-1 13l-38 34c-4 2-10 2-13 0-15-12-19-20-28-33-17 18-31 27-47 33-12 3-24 4-36 4-42 0-75-26-75-78 0-41 22-69 54-82s79-17 94-17m-9 104c10-18 9-32 9-64-13 0-26 1-37 3-21 6-38 20-38 48 0 21 12 36 31 36l7-1c13-3 21-10 28-22Z"/></svg>