<svg width="128" height="128" fill="none"><path fill="#fff" d="M42.205 39.642a2.565 2.565 0 1 0-5.13-.002 2.565 2.565 0 0 0 5.13.002Zm7.692 0a10.256 10.256 0 1 1-20.512 0 10.256 10.256 0 0 1 20.512 0ZM53.744 23.487v-.512a5.128 5.128 0 1 1 10.256 0v.512a5.128 5.128 0 1 1-10.256 0Z"/><path fill="#fff" d="M107.353 15.21a3.847 3.847 0 0 1 5.602 5.272L74.308 61.544c1.215 1.265 2.269 2.549 2.948 4.125l.189.472.004.01c.879 2.405.686 4.614.475 7.04l-.035.405c-1.18 13.716-5.877 23.572-10.36 30.036-2.236 3.223-4.41 5.592-6.054 7.177a33.805 33.805 0 0 1-2.016 1.801c-.25.205-.455.364-.605.478l-.183.137-.012.009-.047.034-.012.009-.01.006-.008.006a3.866 3.866 0 0 1-3.153.599c-10.777-2.67-20.583-7.436-28.002-16.178a45.968 45.968 0 0 1-3.255-4.334c.816.007 1.734-.014 2.738-.082a37.75 37.75 0 0 0 2.253-.221c5.351-.687 12.44-2.748 19.49-8.19a3.846 3.846 0 0 0-4.701-6.089c-5.772 4.456-11.504 6.102-15.768 6.648-2.137.275-3.114.321-5.106.205-1.993-.116-3.176-.164-3.176-.164-3.086-7.072-5.094-15.605-5.89-25.862a3.846 3.846 0 0 1 5.251-3.874c9.343 3.704 18.513 4.48 30.262-.03l.133-.05c2.8-1.074 5.13-1.967 7.037-2.517 1.929-.556 3.949-.928 5.993-.507l.017.004c1.965.414 3.554 1.412 5.006 2.59.352.286.715.599 1.09.935l38.552-40.961Z"/></svg>