<svg width="512" height="512" fill="none"><path fill="#fff" d="M131.608 197.095h39.49c11.019 0 19.947 8.928 19.947 19.947v90.823c0 11-8.928 19.947-19.947 19.947h-24.181V209.708a2.946 2.946 0 0 0-1.21-2.365l-14.099-10.248ZM256 459.482a203.142 203.142 0 0 1-158.748-76.175.847.847 0 0 1-.09-.883.848.848 0 0 1 .75-.474h108.826a4.76 4.76 0 0 0 2.805-.917l41.617-30.213a2.94 2.94 0 0 0 1.173-2.347V175.627a2.931 2.931 0 0 0-1.191-2.365l-41.599-30.195a4.76 4.76 0 0 0-2.805-.917H88.91a.847.847 0 0 1-.719-.453.843.843 0 0 1 .04-.849A203.32 203.32 0 0 1 256 52.5c69.63 0 131.083 34.962 167.768 88.312a.836.836 0 0 1 .036.856.853.853 0 0 1-.305.323.849.849 0 0 1-.427.122h-29.279a2.49 2.49 0 0 0-2.255 1.449l-6.471 13.878-19.837-14.41a4.763 4.763 0 0 0-2.805-.917H315.62a4.771 4.771 0 0 0-2.823.917l-41.58 30.232a2.932 2.932 0 0 0-1.192 2.365v172.846c0 .917.44 1.797 1.192 2.347l41.616 30.213a4.765 4.765 0 0 0 2.805.917h98.469c.696 0 1.1.825.66 1.357a203.15 203.15 0 0 1-70.698 56.196A203.113 203.113 0 0 1 256 459.482ZM65.37 188.167l19.03 13.841a2.956 2.956 0 0 1 1.247 2.42v160.05c0 .844-1.1 1.155-1.54.459A202.586 202.586 0 0 1 52.518 256c0-23.632 4.034-46.31 11.44-67.412a.923.923 0 0 1 .595-.577.914.914 0 0 1 .817.137v.019Zm250.617 8.946h59.125v32.56c0 .844.696 1.54 1.54 1.54h49.518a1.83 1.83 0 0 0 1.76-1.521l9.808-61.857a.844.844 0 0 1 1.577-.238 202.586 202.586 0 0 1 20.167 88.421 202.576 202.576 0 0 1-25.484 98.67c-.403.734-1.54.44-1.54-.421v-56.54a1.539 1.539 0 0 0-1.54-1.54h-54.266a1.539 1.539 0 0 0-1.54 1.54v30.103H351.26a19.987 19.987 0 0 1-14.106-5.846 19.989 19.989 0 0 1-5.859-14.101v-98.175a2.928 2.928 0 0 0-1.192-2.365l-14.116-10.23ZM256 36C134.505 36 36 134.505 36 256s98.505 220 220 220 220-98.505 220-220S377.495 36 256 36Z"/></svg>