<svg width="128" height="128" fill="none"><path fill="#fff" fill-rule="evenodd" d="M64 14c27.615 0 50 22.385 50 50 0 16.574-8.065 31.264-20.483 40.361l15.664.001a4.818 4.818 0 1 1 0 9.638H64c-27.615 0-50-22.385-50-50s22.385-50 50-50Zm0 58.735a11.595 11.595 0 1 0 0 23.191 11.595 11.595 0 0 0 0-23.19ZM43.669 52.404a11.596 11.596 0 1 0 0 23.191 11.596 11.596 0 0 0 0-23.191Zm40.662 0a11.596 11.596 0 1 0 0 23.191 11.596 11.596 0 0 0 0-23.191ZM64 32.072a11.596 11.596 0 1 0 0 23.192 11.596 11.596 0 0 0 0-23.192Z" clip-rule="evenodd"/></svg>