<svg width="512" height="512" fill="none"><path fill="#fff" fill-rule="evenodd" d="M36 244.175h440V47.361H36v196.814Zm57.103-170.4c.21.264.494 1.25.632 2.193.135.945.411 2.79.613 4.101.203 1.311.549 3.543.766 4.96.218 1.414.554 3.517.748 4.67.192 1.154.529 3.257.748 4.673a1792.556 1792.556 0 0 1 2.112 13.828c.53 3.565 1.128 7.426 1.324 8.582.199 1.153.54 3.256.758 4.671.393 2.558.844 5.458 1.583 10.204.212 1.362.535 3.337.716 4.385.181 1.05.544 3.323.807 5.055.561 3.705.902 3.962 1.254.955.142-1.206.858-5.884 1.592-10.395.735-4.511 1.846-11.376 2.471-15.258.624-3.881 1.304-8.044 1.51-9.25a510.198 510.198 0 0 0 1.519-9.248c.226-1.469.576-3.657.778-4.863 1.436-8.593 1.745-10.497 2.274-14.017.238-1.575.599-3.506.803-4.296l.373-1.435 33.329.2.19 62.552c.105 34.406.302 62.296.435 61.982.135-.315.441-2.032.686-3.815.242-1.782.604-4.313.805-5.625.76-4.986 1.167-7.602 1.499-9.632.187-1.154.53-3.385.759-4.957.231-1.575.583-3.934.787-5.245.201-1.312.54-3.5.748-4.864l.764-4.959c.378-2.46.76-4.987 1.524-10.106.883-5.9 1.16-7.731 1.521-10.012.206-1.312.81-5.387 1.338-9.061.531-3.67 1.133-7.703 1.339-8.961.206-1.259.645-4.177.979-6.486.334-2.307.75-5.14.929-6.294.176-1.153.519-3.384.757-4.957.24-1.574.597-3.89.794-5.149.197-1.258.524-3.49.727-4.959.204-1.47.723-4.987 1.153-7.82.43-2.83.973-6.435 1.201-8.01.231-1.572.591-3.073.799-3.336.421-.534 34.032-.712 34.837-.186.235.156.72 2.254 1.077 4.666.359 2.413.81 5.417 1.007 6.676.194 1.259.531 3.49.743 4.96.382 2.604.771 5.172 1.522 10.012.203 1.311.542 3.499.75 4.863.211 1.362.554 3.593.764 4.957.208 1.364.538 3.552.732 4.863.353 2.396.947 6.303 1.556 10.204a6727.783 6727.783 0 0 1 1.523 9.917c.181 1.153.511 3.3.733 4.767.221 1.469.754 4.986 1.185 7.82.427 2.831 1.217 8.067 1.75 11.632.535 3.568 1.13 7.516 1.324 8.774.195 1.259.522 3.49.728 4.957.206 1.47.56 3.873.787 5.342.901 5.849 1.079 7.021 1.677 11.06.338 2.307.684 4.367.764 4.577.077.211.18-22.789.224-51.109.043-28.321.185-55.44.316-60.267l.235-8.771 16.778.013c18.743.016 19.139.06 26.359 3.005 6.579 2.684 13.992 8.788 18.222 15.006 2.534 3.726 2.484 4.616.565-10.397a211.04 211.04 0 0 1-.591-5.247l-.247-2.582 26.988.202.261 1.526c.144.837.455 2.984.691 4.767.236 1.783.599 4.444.805 5.911.208 1.47.529 3.788.716 5.15.186 1.363.526 3.853.758 5.53.896 6.496 1.118 8.104 1.496 10.871.215 1.575.572 4.149.791 5.722a5180.59 5180.59 0 0 1 2.679 19.452c.442 3.252 1.128 8.23 1.521 11.061a471.26 471.26 0 0 1 1.181 9.154c.592 5.172.86 5.366 1.443 1.052a553.2 553.2 0 0 1 .824-5.819 566.785 566.785 0 0 0 1.512-10.871c.234-1.783.577-4.272.767-5.531.189-1.259.528-3.662.75-5.339.222-1.678.824-6.14 1.338-9.917.513-3.776 1.293-9.527 1.732-12.779.439-3.252 1.132-8.314 1.54-11.25.409-2.939.926-6.715 1.148-8.392.224-1.678.567-3.982.762-5.117.197-1.138.357-2.605.357-3.261 0-.657.206-1.401.457-1.653.664-.663 73.152-.663 73.815 0 .776.774.643 25.24-.142 26.023-.517.517-2.127.6-11.818.6h-11.221v15.598c0 14.13.059 15.62.627 15.837.345.133 5.52.229 11.498.211 8.56-.026 10.937.075 11.187.466.443.701.402 25.156-.046 25.863-.302.481-2.18.604-11.718.764l-11.358.19-.199 31.85h11.367c8.332 0 11.489.121 11.823.458.657.654.657 25.128 0 25.782-.789.792-49.334.648-49.641-.144-.125-.332-.247-28.181-.27-61.886-.022-38.343-.171-60.784-.391-59.948-.194.734-.512 2.366-.707 3.624-.194 1.259-.54 3.404-.768 4.768a351.487 351.487 0 0 0-.762 4.767 461.459 461.459 0 0 1-.746 4.673c-.219 1.311-.579 3.455-.796 4.767-.22 1.311-.556 3.414-.746 4.673-.361 2.373-.633 4.096-1.873 11.825-.403 2.517-1.352 8.525-2.107 13.349-2.251 14.365-2.499 15.923-2.876 18.118a357.329 357.329 0 0 0-.744 4.577c-.212 1.362-.727 4.625-1.143 7.246-1.201 7.531-1.84 11.557-2.908 18.308-.547 3.462-1.325 8.353-1.727 10.87a676.188 676.188 0 0 0-1.121 7.218c-.213 1.454-.577 2.868-.808 3.147-.597.719-30.165.748-30.73.03-.309-.394-1.513-6.992-3.569-19.549-.172-1.048-.49-2.979-.709-4.291l-.758-4.577a307.712 307.712 0 0 0-.782-4.481 315.107 315.107 0 0 1-.796-4.577c-.206-1.259-.54-3.275-.744-4.481-.201-1.206-.528-3.181-.727-4.387a899.367 899.367 0 0 0-1.165-6.769 908.113 908.113 0 0 1-1.146-6.676 5540.52 5540.52 0 0 0-2.075-12.489c-.954-5.714-1.736-10.735-1.736-11.156 0-.421-.172-.767-.38-.767-.21 0-.382.442-.382.982 0 6.184-5.582 17.722-11.692 24.169l-3.496 3.689 2.29 7.8c4.935 16.818 6.106 20.814 6.474 22.1.998 3.476 4.219 14.411 4.498 15.258.171.524.501 1.638.732 2.478.231.84.766 2.627 1.19 3.973.42 1.346.766 2.847.766 3.337v.89h-25.867l-.391-1.238c-.215-.682-.927-3.3-1.583-5.818a3505.864 3505.864 0 0 0-5.331-20.214c-.418-1.575-1.105-4.149-1.523-5.722-2.05-7.687-2.386-8.961-3.02-11.442l-.684-2.671-2.393.071c-1.318.037-2.549.222-2.736.412-.195.194-.334 10.04-.325 22.865.009 12.385-.089 22.8-.22 23.139-.315.824-49.354.963-50.011.142-.208-.263-.478-1.421-.597-2.575-.217-2.098-.67-5.467-1.409-10.488a128.196 128.196 0 0 1-.625-4.959c-.398-3.934.444-3.651-10.526-3.536l-9.599.103-.45 2.861c-.247 1.574-.915 6.293-1.485 10.488-.57 4.197-1.208 7.843-1.418 8.106-.652.808-50.46.684-50.771-.126-.126-.332-.245-14.537-.263-31.563-.028-27.607-.09-30.713-.575-28.671-.423 1.794-3.633 20.658-6.311 37.092-.179 1.103-.474 2.905-.652 4.005-1.831 11.23-3.247 18.872-3.569 19.263-.46.556-13.843.698-14.182.151-.194-.314-1.043-4.769-1.757-9.209a237.725 237.725 0 0 0-.757-4.387 343.547 343.547 0 0 1-.78-4.481l-.725-4.387a304.119 304.119 0 0 0-.783-4.481 328.803 328.803 0 0 1-.761-4.387c-.19-1.154-.533-3.129-.765-4.387-.23-1.259-.57-3.147-.75-4.195-.183-1.049-.517-2.98-.743-4.291a767.243 767.243 0 0 1-.774-4.577c-.903-5.481-1.978-11.464-2.28-12.683-.195-.788-.346 11.394-.369 29.771-.03 23.638-.148 31.213-.496 31.561-.654.657-25.501.657-26.155 0-.684-.682-.666-143.57.018-143.848 1.155-.467 32.984-.252 33.368.225ZM439.78 191.16h11.056c10.274 0 11.059.046 11.064.666.084 9.962-.042 25.4-.209 25.67-.354.575-47.568.481-48.144-.096-.499-.499-.7-143.346-.204-143.845.142-.14 6.147-.255 13.347-.255h13.09v117.86Zm-189.497-46.055 1.62-.247c20.118-3.046 19.585-45.157-.572-45.237l-1.048-.002v45.486Zm-63.399-28.959c-.151.385-.277 1.307-.277 2.053s-.162 2.405-.364 3.687c-.201 1.284-.551 4.051-.777 6.147-.227 2.099-.57 5.103-.762 6.676-.426 3.497-.764 6.428-2.482 21.551l-1.572 13.825-.231 2.002h13.898l-.206-.858c-.112-.471-.3-1.629-.417-2.575a10461.61 10461.61 0 0 1-3.079-25.553 8673.224 8673.224 0 0 0-1.695-14.114 845.984 845.984 0 0 1-.785-6.675c-.638-5.635-.917-7.01-1.251-6.166Z" clip-rule="evenodd"/><path fill="#fff" fill-rule="evenodd" d="M59.735 73.551c-.684.277-.702 143.166-.018 143.848.654.657 25.5.657 26.155 0 .348-.348.466-7.923.496-31.561.023-18.377.174-30.559.369-29.771.302 1.219 1.377 7.202 2.28 12.683.2 1.206.547 3.265.774 4.577.226 1.311.56 3.242.743 4.291.18 1.048.52 2.936.75 4.195.232 1.258.575 3.233.765 4.387.19 1.153.533 3.128.761 4.387.231 1.258.584 3.275.783 4.481l.725 4.387c.2 1.206.551 3.222.78 4.481.231 1.258.572 3.231.757 4.387.714 4.44 1.563 8.895 1.757 9.209.339.547 13.722.405 14.182-.151.322-.391 1.738-8.033 3.569-19.263.178-1.1.473-2.902.652-4.005 2.678-16.434 5.888-35.298 6.311-37.092.485-2.042.547 1.064.575 28.671.018 17.026.137 31.231.263 31.563.311.81 50.119.934 50.771.126.21-.263.848-3.909 1.418-8.106.57-4.195 1.238-8.914 1.485-10.488l.45-2.861 9.599-.103c10.97-.115 10.128-.398 10.526 3.536.126 1.258.407 3.49.625 4.959.739 5.021 1.192 8.39 1.409 10.488.119 1.154.389 2.312.597 2.575.657.821 49.696.682 50.011-.142.131-.339.229-10.754.22-23.139-.009-12.825.13-22.671.325-22.865.187-.19 1.418-.375 2.736-.412l2.393-.071.684 2.671c.634 2.481.97 3.755 3.02 11.442.418 1.573 1.105 4.147 1.523 5.722a3505.864 3505.864 0 0 1 5.331 20.214c.656 2.518 1.368 5.136 1.583 5.818l.391 1.238h25.867v-.89c0-.49-.346-1.991-.766-3.337a143.055 143.055 0 0 1-1.19-3.973 68.994 68.994 0 0 0-.732-2.478c-.279-.847-3.5-11.782-4.498-15.258-.368-1.286-1.539-5.282-6.474-22.1l-2.29-7.8 3.496-3.689c6.11-6.447 11.692-17.985 11.692-24.169 0-.54.172-.982.382-.982.208 0 .38.346.38.767 0 .421.782 5.442 1.736 11.156a5540.52 5540.52 0 0 1 2.075 12.489c.19 1.153.705 4.158 1.146 6.676.442 2.517.966 5.563 1.165 6.769.199 1.206.526 3.181.727 4.387.204 1.206.538 3.222.744 4.481.208 1.259.565 3.319.796 4.577.231 1.259.583 3.275.782 4.481l.758 4.577c.219 1.312.537 3.243.709 4.291 2.056 12.557 3.26 19.155 3.569 19.549.565.718 30.133.689 30.73-.03.231-.279.595-1.693.808-3.147.213-1.451.716-4.7 1.121-7.218.402-2.517 1.18-7.408 1.727-10.87 1.068-6.751 1.707-10.777 2.908-18.308.416-2.621.931-5.884 1.143-7.246.211-1.364.547-3.424.744-4.577.377-2.195.625-3.753 2.876-18.118.755-4.824 1.704-10.832 2.107-13.349 1.24-7.729 1.512-9.452 1.873-11.825.19-1.259.526-3.362.746-4.673.217-1.312.577-3.456.796-4.767.217-1.312.554-3.415.746-4.673.19-1.259.533-3.404.762-4.767.228-1.364.574-3.509.768-4.767.195-1.26.513-2.89.707-3.626.22-.835.369 21.606.391 59.949.023 33.705.145 61.554.27 61.886.307.792 48.852.936 49.641.144.657-.654.657-25.128 0-25.782-.334-.337-3.491-.458-11.823-.458h-11.367l.199-31.85 11.358-.19c9.538-.16 11.416-.283 11.718-.764.448-.707.489-25.162.046-25.863-.25-.391-2.627-.492-11.187-.466-5.978.018-11.153-.078-11.498-.211-.568-.217-.627-1.707-.627-15.837V100.38h11.221c9.691 0 11.301-.083 11.818-.6.785-.782.918-25.25.142-26.023-.663-.663-73.151-.663-73.815 0-.251.252-.457.996-.457 1.653 0 .656-.16 2.123-.357 3.26-.195 1.136-.538 3.44-.762 5.118-.222 1.677-.739 5.453-1.148 8.392-.408 2.936-1.101 7.998-1.54 11.25-.439 3.252-1.219 9.003-1.732 12.779-.514 3.777-1.116 8.239-1.338 9.917-.222 1.677-.561 4.08-.75 5.339-.19 1.259-.533 3.748-.767 5.531a566.785 566.785 0 0 1-1.512 10.871 553.2 553.2 0 0 0-.824 5.819c-.583 4.314-.851 4.12-1.443-1.052a471.26 471.26 0 0 0-1.181-9.154c-.393-2.831-1.079-7.809-1.521-11.061a5180.59 5180.59 0 0 0-2.679-19.452c-.219-1.573-.576-4.147-.791-5.722-.378-2.767-.6-4.375-1.496-10.87-.232-1.678-.572-4.168-.758-5.532-.187-1.361-.508-3.68-.716-5.149a918.207 918.207 0 0 1-.805-5.911c-.236-1.783-.547-3.93-.691-4.767l-.261-1.526-26.988-.202.247 2.582c.138 1.416.403 3.78.591 5.247 1.919 15.013 1.969 14.123-.565 10.397-4.23-6.218-11.643-12.322-18.222-15.006-7.22-2.945-7.616-2.989-26.359-3.005l-16.778-.013-.235 8.771c-.131 4.827-.273 31.946-.316 60.267-.044 28.32-.147 51.32-.224 51.109-.08-.21-.426-2.27-.764-4.577-.598-4.039-.776-5.211-1.677-11.06a464.54 464.54 0 0 1-.787-5.342 432.227 432.227 0 0 0-.728-4.957c-.194-1.258-.789-5.206-1.324-8.774-.533-3.565-1.323-8.801-1.75-11.632-.431-2.834-.964-6.351-1.185-7.82a1074.65 1074.65 0 0 0-.733-4.767 6727.783 6727.783 0 0 0-1.523-9.917c-.609-3.901-1.203-7.808-1.556-10.204-.194-1.311-.524-3.499-.732-4.863-.21-1.364-.553-3.595-.764-4.957-.208-1.364-.547-3.552-.75-4.863-.751-4.84-1.14-7.408-1.522-10.013-.212-1.469-.549-3.7-.743-4.959-.197-1.259-.648-4.263-1.007-6.675-.357-2.413-.842-4.511-1.077-4.667-.805-.526-34.416-.348-34.837.186-.208.263-.568 1.764-.799 3.336-.228 1.575-.771 5.18-1.201 8.01-.43 2.833-.949 6.35-1.153 7.82-.203 1.47-.53 3.7-.727 4.96-.197 1.258-.554 3.574-.794 5.148-.238 1.573-.581 3.804-.757 4.957a881.349 881.349 0 0 0-.929 6.294 468.81 468.81 0 0 1-.979 6.486c-.206 1.258-.808 5.291-1.339 8.961-.528 3.674-1.132 7.749-1.338 9.061-.361 2.281-.638 4.112-1.521 10.012-.764 5.119-1.146 7.646-1.524 10.106l-.764 4.959c-.208 1.364-.547 3.552-.748 4.864a750.69 750.69 0 0 0-.787 5.245 383.907 383.907 0 0 1-.759 4.957c-.332 2.03-.739 4.646-1.499 9.632a412.404 412.404 0 0 0-.805 5.625c-.245 1.783-.551 3.5-.686 3.815-.133.314-.33-27.576-.435-61.982l-.19-62.552-33.329-.2-.373 1.435c-.204.79-.565 2.721-.803 4.296-.529 3.52-.838 5.424-2.274 14.017a451.87 451.87 0 0 0-.778 4.863 510.198 510.198 0 0 1-1.519 9.248c-.206 1.206-.886 5.369-1.51 9.25a9907.739 9907.739 0 0 1-2.471 15.258c-.734 4.511-1.45 9.189-1.592 10.395-.352 3.007-.693 2.75-1.254-.955a325.78 325.78 0 0 0-.807-5.055 327.987 327.987 0 0 1-.716-4.385c-.739-4.746-1.19-7.646-1.583-10.204a321.005 321.005 0 0 0-.758-4.671c-.196-1.156-.793-5.017-1.324-8.582-.533-3.568-1.137-7.557-1.343-8.868-.206-1.312-.551-3.543-.769-4.96-.22-1.416-.556-3.52-.748-4.673-.194-1.153-.53-3.256-.748-4.67-.217-1.417-.563-3.649-.766-4.96a490.838 490.838 0 0 1-.613-4.101c-.138-.943-.421-1.93-.632-2.192-.384-.477-32.213-.692-33.368-.225Zm353.607.003c-.496.498-.295 143.346.204 143.845.576.577 47.79.671 48.144.096.167-.27.293-15.708.209-25.67-.005-.62-.79-.666-11.064-.666h-11.056V73.299h-13.09c-7.2 0-13.205.115-13.347.255ZM92.884 75.206c.306 1.387.835 4.517 1.482 8.772.741 4.886 1.087 7.094 1.496 9.536.227 1.364.584 3.595.79 4.96.65 4.277 1.07 6.977 1.452 9.343.206 1.259.563 3.49.794 4.96.233 1.467.577 3.613.762 4.767.187 1.153.537 3.384.778 4.959.238 1.572.581 3.803.761 4.957.181 1.153.497 3.213.705 4.577 1.135 7.44 1.999 12.9 2.192 13.83.439 2.139.903.748 2.061-6.2.208-1.259.544-3.277.748-4.483.201-1.206.542-3.31.755-4.671.215-1.364.901-5.655 1.523-9.537.623-3.881 2.538-15.896 4.253-26.7 1.716-10.802 3.29-19.857 3.496-20.118.396-.504 30.813-.735 32.089-.245.552.21.607 6.103.598 64.53-.01 68.733.052 70.885 1.718 58.817.331-2.412 1.974-13.482 3.651-24.602 1.674-11.117 3.395-22.617 3.825-25.553.428-2.939.924-6.285 1.105-7.438.622-4.003 1.205-7.831 1.555-10.205.371-2.528.899-6.002 1.506-9.916.203-1.311.528-3.456.72-4.767.193-1.311.549-3.671.794-5.245.243-1.572.6-3.934.792-5.245.343-2.321.727-4.854 1.482-9.727.204-1.311.554-3.584.776-5.053.222-1.469.565-3.7.761-4.959.197-1.259.543-3.575.765-5.15.224-1.572.537-3.46.695-4.194l.288-1.334 16.84-.101c19.404-.115 17.384-.584 18.023 4.19.203 1.527.53 3.806.725 5.065.196 1.258.544 3.55.771 5.092 1.189 8.076 8.464 56.657 8.791 58.701a694.16 694.16 0 0 1 1.535 10.012c.231 1.572.57 3.803.753 4.957.183 1.153.528 3.387.764 4.959.236 1.575.579 3.806.762 4.959.183 1.154.526 3.385.762 4.957.235 1.575.579 3.806.764 4.96.183 1.153.515 3.341.739 4.863 1.02 6.968 1.233 8.357 1.411 9.25.105.524.284 1.51.396 2.192.746 4.504.892-4.65.979-61.408l.096-62.648 13.726-.126c16.291-.149 20.16.201 26.691 2.412 7.687 2.604 16.137 9.394 20.779 16.7 3.011 4.737 2.976 4.8 1.913-3.731-.183-1.467-.522-4.128-.753-5.911-.862-6.655-1.091-8.958-.915-9.244.101-.16 5.916-.293 12.925-.293h12.743l.181.859c.329 1.565.942 5.991 4.024 29.085 1.681 12.586 3.216 23.999 3.415 25.363.197 1.364.547 3.939.78 5.722.231 1.782.575 4.272.764 5.531.19 1.259.536 3.746.767 5.529 2.294 17.636 2.304 17.647 4.01 4.769.529-3.986 1.302-9.65 1.716-12.586.414-2.939.933-6.715 1.153-8.393.22-1.677.551-4.08.739-5.339.187-1.258.528-3.661.757-5.341a4028.87 4028.87 0 0 1 2.297-16.592c.194-1.362.538-3.852.764-5.529.224-1.68.565-4.167.757-5.531.369-2.612.833-5.928 1.494-10.681.217-1.572.499-3.675.62-4.67.3-2.41-2.974-2.228 37.544-2.109l35.651.106v25.553l-23.069.204v32.779l23.069.201v25.556l-23.076.202.199 33.364 23.078.201-.201 24.973h-48.623l-.02-62.935c-.014-34.614-.154-63.266-.311-63.674-.527-1.334-.774-.116-3.469 17.011a6602.097 6602.097 0 0 1-3.038 19.201c-.206 1.259-.729 4.52-1.162 7.245-1.105 6.969-1.992 12.5-2.644 16.498a703.558 703.558 0 0 0-.794 5.053c-.24 1.575-.581 3.632-.755 4.578-.174.945-.513 3.004-.753 4.577-.24 1.574-.599 3.847-.796 5.053-.457 2.81-.952 5.886-1.487 9.25a643.492 643.492 0 0 1-.775 4.767c-.195 1.153-.538 3.3-.765 4.769a389.9 389.9 0 0 1-.761 4.767c-.195 1.154-.538 3.3-.762 4.767a346.188 346.188 0 0 1-.773 4.77c-.199 1.153-.71 4.327-1.13 7.055a836.376 836.376 0 0 1-.975 6.197l-.208 1.241h-30.003l-.27-1.048c-.147-.577-.424-2.037-.613-3.243-.689-4.394-1.151-7.163-6.854-41.098-6.598-39.271-6.342-37.726-6.685-40.156-.313-2.204-.812-2.66-1.046-.953-1.823 13.331-5.38 21.085-13.138 28.621l-2.651 2.577.94 3.144a525.95 525.95 0 0 1 1.27 4.287 531.75 531.75 0 0 1 1.466 5.245c.185.682.588 2.012.899 2.957.309.943.783 2.487 1.052 3.432.27.943.744 2.488 1.053 3.433.311.943.725 2.316.922 3.051.519 1.943.874 3.16 2.219 7.628.663 2.203 1.35 4.519 1.521 5.149.348 1.268 4.447 15.191 4.795 16.29.211.663-.345.691-12.468.595l-12.69-.101-.265-1.144c-.238-1.019-.787-3.117-2.745-10.491-.307-1.153-2.391-9.134-4.631-17.736-5.261-20.201-4.255-18.178-8.617-17.35-2.812.534-2.633-1.082-2.64 24.122l-.007 22.789h-49.08l-.428-2.765c-.236-1.522-.87-6.112-1.407-10.204-.538-4.09-1.139-7.827-1.334-8.301l-.357-.865-20.019.204-.444 2.288c-.245 1.259-.643 3.747-.886 5.529-.697 5.161-1.098 7.99-1.578 11.157l-.449 2.957h-49.842l-.036-32.326c-.044-36.806-.165-38.623-1.862-28.13-.442 2.728-.952 5.73-1.135 6.675-.183.945-.533 3.005-.778 4.577-.247 1.575-.59 3.632-.766 4.577-.35 1.877-.929 5.207-1.522 8.772l-.764 4.577c-.958 5.758-1.201 7.182-1.523 8.965a321.891 321.891 0 0 0-.746 4.291l-.799 4.767a294.03 294.03 0 0 1-.75 4.291c-.194 1.05-.544 3.11-.78 4.577a211.72 211.72 0 0 1-.593 3.529c-.16.851-.217.858-6.803.858-7.394 0-6.99.16-7.456-2.971-.18-1.197-.947-5.783-1.706-10.188-.758-4.406-2.727-15.906-4.374-25.556-3.178-18.604-4.175-24.396-4.55-26.431-.827-4.494-.998.531-1.092 31.866l-.096 33.28H60.021v-71.453c0-39.298.117-71.569.258-71.71.142-.143 7.47-.216 16.284-.161l16.025.1.296 1.335Zm346.419 57.177c.071 42.472.215 58.65.524 59.023.338.41 2.603.515 11.056.515h10.629v25.174h-47.66v-71.453c0-39.298.117-71.569.259-71.713.142-.142 5.847-.213 12.678-.158l12.418.1.096 58.512ZM249.927 99.567c-.54 1.01-.572 44.423-.032 45.428l.004.007.009.016c.568.985 2.899.588 5.427-.585 1.854-.861 3.814-2.138 5.26-3.592 4.294-4.317 6.641-11.134 6.896-18.031.237-6.387-1.32-12.842-4.785-17.444a11.932 11.932 0 0 0-1.576-1.682c-1.639-1.468-3.806-2.796-5.805-3.668-1.749-.763-3.369-1.177-4.397-1.032-.476.067-.825.255-1.001.583Zm4.223.595c8.206 2.493 12.111 8.914 12.443 20.462.385 13.388-5.33 22.817-14.691 24.233l-1.62.247V99.618l1.048.002c.576.002 1.846.247 2.82.542Zm-67.288 12.805c-.267.755-.684 4.156-2.921 23.839-.215 1.888-.561 4.847-.769 6.58a4424.79 4424.79 0 0 0-1.521 12.873c-.211 1.783-.558 4.744-.773 6.579-.213 1.836-.568 4.58-.787 6.099-.218 1.52-.289 2.936-.158 3.147.405.657 14.277.506 14.531-.158.181-.471-.24-4.506-1.791-17.194a1026.17 1026.17 0 0 1-.727-6.103 782.95 782.95 0 0 0-.765-6.294c-.226-1.782-.565-4.529-.754-6.101l-.749-6.199-.805-6.674c-.222-1.835-.551-4.625-.734-6.199-.371-3.218-.95-5.12-1.277-4.195Zm1.272 9.344c.238 2.098.591 5.103.785 6.675.192 1.575.956 7.923 1.695 14.114a10461.61 10461.61 0 0 0 3.079 25.553c.117.946.305 2.104.417 2.575l.206.858h-13.898l.231-2.002 1.572-13.825c1.718-15.123 2.056-18.054 2.482-21.551.192-1.573.535-4.577.762-6.676.226-2.096.576-4.863.777-6.147.202-1.282.364-2.941.364-3.687 0-4.671.766-2.611 1.528 4.113Z" clip-rule="evenodd"/><path fill="#fff" fill-rule="evenodd" d="M254.683 99.821c.217.06.431.125.642.195-1.749-.763-3.369-1.177-4.397-1.032.646.008 1.736.278 3.755.837Zm12.808 22.989c.201-7.295-1.947-14.632-6.361-19.126a11.932 11.932 0 0 1 1.576 1.682c3.465 4.602 5.022 11.057 4.785 17.444Zm-17.583 22.208c.568.985 2.899.588 5.427-.585-2.841 1.232-4.918 1.466-5.427.585ZM47.438 279.267h417.885V267.06H47.438v12.207Zm16.776 10.299c0 .21-1.016.38-2.288.38-1.272 0-2.287.169-2.287.382 0 .21-.515.382-1.144.382-.63 0-1.144.172-1.144.38 0 .21-.304.382-.68.382-.372 0-.924.343-1.226.762-.301.421-.775.764-1.047.764-.696 0-3.91 3.285-3.91 3.994 0 .32-.172.584-.382.584-.208 0-.38.343-.38.762 0 .418-.171.762-.382.762-.21 0-.382.515-.382 1.144 0 .629-.172 1.144-.38 1.144-.212 0-.382 1.019-.382 2.289 0 1.272-.169 2.288-.382 2.288-.251 0-.38 20.471-.38 60.646 0 40.178.129 60.646.38 60.646.21 0 .382.859.382 1.909 0 1.048.172 1.906.382 1.906.209 0 .38.515.38 1.145 0 .629.172 1.144.382 1.144.21 0 .382.304.382.68 0 .373.343.924.762 1.226.419.302.762.778.762 1.055 0 .657 1.722 2.378 2.377 2.378.279 0 .752.343 1.054.764.302.419.856.763 1.229.763.373 0 .68.171.68.382 0 .208.514.38 1.143.38.63 0 1.144.171 1.144.382 0 .213 1.016.382 2.288.382 1.27 0 2.287.169 2.287.38 0 .249 5.845.382 16.776.382 10.93 0 16.776-.133 16.776-.382 0-.208.858-.38 1.908-.38 1.047 0 1.905-.172 1.905-.382 0-.211.515-.382 1.144-.382.629 0 1.144-.172 1.144-.38 0-.211.343-.382.762-.382.421 0 .764-.172.764-.383 0-.208.261-.38.579-.38.755 0 4.758-4.004 4.758-4.76 0-.32.172-.581.382-.581.208 0 .38-.515.38-1.144 0-.63.172-1.144.382-1.144.21 0 .382-.687.382-1.525 0-.84.172-1.526.38-1.526.231 0 .382-1.652.382-4.195s.151-4.197.382-4.197c.247 0 .38-6.101.38-17.544 0-17.292-.009-17.546-.762-17.546-.419 0-.762-.172-.762-.382 0-.666-27.002-.506-27.672.164-.453.454-.544 3.065-.544 15.638 0 9.809-.133 15.093-.38 15.093-.21 0-.382.441-.382.982 0 2.151-2.693 2.844-4.402 1.135l-.935-.939v-50.935c0-33.704.128-50.939.38-50.939.21 0 .381-.27.381-.599 0-.847.945-1.689 1.897-1.689 1.11 0 2.679 1.666 2.679 2.845 0 .533.171.97.382.97.247 0 .38 5.339.38 15.258v15.255h29.74v-20.215c0-13.223-.131-20.214-.38-20.214-.213 0-.382-1.019-.382-2.289 0-1.272-.169-2.288-.382-2.288-.208 0-.38-.515-.38-1.145 0-.629-.172-1.144-.382-1.144-.21 0-.382-.478-.382-1.062 0-.622-.313-1.286-.762-1.609-.418-.302-.762-.775-.762-1.05 0-.65-2.493-3.145-3.145-3.145-.275 0-.748-.343-1.05-.764-.302-.419-.854-.762-1.227-.762-.375 0-.679-.172-.679-.382 0-.208-.686-.38-1.526-.38-.837 0-1.523-.172-1.523-.382 0-.227-1.398-.382-3.432-.382s-3.431-.156-3.431-.38c0-.25-5.086-.382-14.49-.382-9.406 0-14.489.132-14.489.382Zm279.099 0c0 .21-1.015.38-2.287.38s-2.288.169-2.288.382c0 .21-.515.382-1.144.382-.629 0-1.144.172-1.144.38 0 .21-.304.382-.679.382-.373 0-.924.343-1.226.762-.302.421-.776.764-1.048.764-.695 0-3.91 3.285-3.91 3.994 0 .32-.171.584-.382.584-.208 0-.38.343-.38.762 0 .418-.171.762-.382.762-.21 0-.382.515-.382 1.144 0 .629-.171 1.144-.379 1.144-.213 0-.382 1.019-.382 2.289 0 1.272-.17 2.288-.382 2.288-.252 0-.38 20.471-.38 60.646 0 40.178.128 60.646.38 60.646.21 0 .382.859.382 1.909 0 1.048.171 1.906.382 1.906.208 0 .379.515.379 1.145 0 .629.172 1.144.382 1.144.211 0 .382.304.382.68 0 .373.344.924.762 1.226.419.302.762.776.762 1.051 0 .695 2.517 3.146 3.228 3.146.323 0 .586.172.586.38 0 .211.343.383.761.383.421 0 .765.171.765.382 0 .208.514.38 1.143.38s1.144.171 1.144.382c0 .213 1.016.382 2.288.382 1.27 0 2.288.169 2.288.38 0 .249 5.845.382 16.775.382 10.931 0 16.776-.133 16.776-.382 0-.208.858-.38 1.908-.38 1.048 0 1.906-.172 1.906-.382 0-.211.514-.382 1.143-.382.63 0 1.144-.172 1.144-.38 0-.211.344-.382.762-.382.421 0 .764-.172.764-.383 0-.208.261-.38.579-.38.755 0 4.758-4.004 4.758-4.76 0-.32.172-.581.382-.581.209 0 .38-.515.38-1.144 0-.63.172-1.144.382-1.144.211 0 .382-.687.382-1.525 0-.84.172-1.526.38-1.526.231 0 .382-1.652.382-4.195s.151-4.197.382-4.197c.247 0 .38-6.23.38-17.926V384.54h-8.769c-5.591 0-8.769.137-8.769.38 0 .21-.343.382-.764.382-.418 0-.761-.172-.761-.382 0-.646-9.476-.492-10.133.164-.453.454-.544 3.065-.544 15.638 0 9.809-.133 15.093-.38 15.093-.21 0-.382.441-.382.982 0 2.151-2.693 2.844-4.402 1.135l-.935-.939v-50.935c0-33.704.128-50.939.38-50.939.21 0 .382-.343.382-.762 0-.508.254-.762.761-.762.421 0 .765-.171.765-.382 0-.7 1.166-.394 2.113.554.515.515.936 1.373.936 1.909 0 .533.172.97.382.97.247 0 .38 5.339.38 15.258v15.255h29.74v-19.833c0-12.969-.13-19.834-.38-19.834-.219 0-.382-1.145-.382-2.671 0-1.524-.162-2.668-.382-2.668-.208 0-.38-.515-.38-1.145 0-.629-.171-1.144-.382-1.144-.21 0-.382-.478-.382-1.062 0-.622-.313-1.286-.762-1.609-.418-.302-.761-.773-.761-1.048 0-.693-3.286-3.911-3.995-3.911-.32 0-.581-.172-.581-.38 0-.21-.343-.382-.764-.382-.418 0-.762-.172-.762-.382 0-.208-.686-.38-1.526-.38-.837 0-1.523-.172-1.523-.382 0-.227-1.398-.382-3.432-.382s-3.431-.156-3.431-.38c0-.25-5.086-.382-14.491-.382-9.404 0-14.488.132-14.488.382Zm76.256 0c0 .222-1.269.38-3.049.38s-3.05.16-3.05.382c0 .21-.686.382-1.526.382-.839 0-1.525.172-1.525.38 0 .21-.515.382-1.144.382-.629 0-1.144.172-1.144.382 0 .208-.304.38-.677.38-.373 0-.927.343-1.229.764-.302.419-.782.763-1.064.763-.663 0-1.606.94-1.606 1.604 0 .284-.343.764-.761 1.066-.419.302-.762.854-.762 1.227 0 .375-.172.68-.382.68-.211 0-.382.515-.382 1.144 0 .629-.172 1.144-.38 1.144-.211 0-.382.687-.382 1.527 0 .837-.172 1.524-.382 1.524-.249 0-.38 7.248-.38 20.979 0 13.731.131 20.979.38 20.979.21 0 .382.858.382 1.906s.171 1.906.382 1.906c.208 0 .38.687.38 1.527 0 .84.171 1.526.382 1.526.21 0 .382.515.382 1.145 0 .629.171 1.144.38 1.144.21 0 .382.343.382.762s.171.762.382.762c.208 0 .379.343.379.764 0 .419.172.762.382.762.211 0 .383.344.383.763 0 .421.171.764.379.764.211 0 .382.275.382.609 0 .336.515 1.091 1.144 1.679.629.589 1.144 1.266 1.144 1.504 0 .568 1.741 2.309 2.308 2.309.241 0 .918.515 1.506 1.144.588.63 1.342 1.145 1.676 1.145.337 0 .611.171.611.382 0 .21.305.382.678.382.372 0 .926.343 1.228.762.302.419.856.762 1.228.762.373 0 .678.172.678.382 0 .211.343.383.764.383.418 0 .762.171.762.379 0 .211.343.383.761.383.421 0 .764.171.764.382 0 .208.344.38.762.38.419 0 .762.171.762.382 0 .21.307.382.679.382.373 0 .927.343 1.229.762.302.419.853.762 1.226.762.375 0 .68.172.68.382 0 .211.343.383.761.383.421 0 .764.171.764.38 0 .21.305.382.678.382.373 0 .926.343 1.228.762.302.421.856.764 1.229.764.395 0 .677.282.677.678 0 .373.343.926.764 1.228.419.303.762.856.762 1.229 0 .373.171.678.382.678.208 0 .38.515.38 1.144 0 .629.171 1.144.382 1.144.21 0 .382.687.382 1.527 0 .84.171 1.526.379 1.526.227 0 .382 1.399.382 3.433 0 2.035.156 3.433.382 3.433.245 0 .38 3.813.38 10.678 0 6.866-.135 10.681-.38 10.681-.21 0-.382.515-.382 1.144 0 .629-.171 1.144-.382 1.144-.208 0-.379.344-.379.762 0 1.17-2.414 1.055-3.64-.171-.876-.877-.936-1.197-.936-4.96 0-2.428-.151-4.023-.382-4.023-.217 0-.382-1.144-.382-2.668 0-1.527.165-2.671.382-2.671.659 0 .503-17.86-.162-18.526-.81-.81-27.842-.81-28.651 0-.673.673-.833 42.938-.165 42.938.21 0 .382.686.382 1.524 0 .84.171 1.526.382 1.526.208 0 .38.515.38 1.145 0 .629.171 1.144.382 1.144.21 0 .382.261.382.579 0 .753 5.531 6.287 6.284 6.287.318 0 .579.171.579.382 0 .208.515.38 1.144.38.629 0 1.144.171 1.144.382 0 .21.686.382 1.523.382.84 0 1.526.172 1.526.38 0 .249 6.101.382 17.54.382 11.438 0 17.537-.133 17.537-.382 0-.208.858-.38 1.908-.38 1.048 0 1.906-.172 1.906-.382 0-.211.515-.382 1.144-.382.629 0 1.144-.172 1.144-.38 0-.211.343-.382.762-.382.42 0 .764-.172.764-.383 0-.208.26-.38.578-.38.755 0 4.759-4.004 4.759-4.76 0-.32.171-.581.382-.581.208 0 .38-.515.38-1.144 0-.63.171-1.144.382-1.144.21 0 .382-.687.382-1.525 0-.84.171-1.526.379-1.526.227 0 .382-1.398.382-3.433 0-2.034.156-3.433.383-3.433.249 0 .379-6.737.379-19.452 0-12.715-.13-19.453-.379-19.453-.232 0-.383-1.652-.383-4.195 0-2.542-.15-4.197-.382-4.197-.208 0-.379-.858-.379-1.906s-.172-1.906-.382-1.906c-.211 0-.382-.687-.382-1.527 0-.84-.172-1.526-.38-1.526-.211 0-.382-.515-.382-1.145 0-.629-.172-1.144-.382-1.144-.208 0-.38-.515-.38-1.144 0-.629-.172-1.144-.382-1.144-.211 0-.382-.344-.382-.763 0-.418-.172-.762-.38-.762-.21 0-.382-.343-.382-.764 0-.419-.171-.762-.382-.762-.208 0-.38-.304-.38-.68 0-.373-.343-.924-.764-1.226-.418-.302-.762-.774-.762-1.044 0-.643-6.321-6.966-6.963-6.966-.273 0-.742-.344-1.044-.765-.302-.418-.855-.762-1.228-.762s-.677-.171-.677-.382c0-.208-.343-.38-.764-.38-.419 0-.762-.171-.762-.382s-.304-.382-.68-.382c-.372 0-.924-.343-1.226-.762-.302-.419-.855-.762-1.228-.762s-.68-.172-.68-.382c0-.211-.343-.383-.761-.383-.419 0-.762-.171-.762-.38 0-.21-.307-.382-.68-.382-.373 0-.926-.343-1.228-.762-.302-.421-.854-.764-1.226-.764-.376 0-.68-.172-.68-.38 0-.211-.343-.382-.762-.382-.421 0-.764-.172-.764-.382 0-.209-.261-.38-.581-.38-.757 0-3.994-3.239-3.994-3.996 0-.321-.172-.581-.38-.581-.21 0-.382-.515-.382-1.145 0-.629-.172-1.144-.382-1.144-.243 0-.38-3.433-.38-9.536 0-6.104.137-9.537.38-9.537.21 0 .382-.343.382-.762 0-.508.254-.762.762-.762.421 0 .764-.171.764-.382 0-.567 1.116-.462 1.743.163.3.299.545.814.545 1.144 0 .329.171.599.379.599.211 0 .382.687.382 1.527 0 .84.172 1.526.382 1.526.243 0 .38 3.433.38 9.534v9.537h29.74v-13.349c0-8.646-.132-13.352-.379-13.352-.227 0-.383-1.398-.383-3.432 0-2.035-.155-3.433-.382-3.433-.208 0-.379-.687-.379-1.524 0-.84-.172-1.527-.382-1.527-.211 0-.382-.515-.382-1.144 0-.629-.172-1.144-.38-1.144-.211 0-.382-.344-.382-.762 0-.422-.172-.765-.382-.765-.208 0-.38-.263-.38-.583 0-.76-2.471-3.23-3.228-3.23-.322 0-.586-.171-.586-.382 0-.21-.343-.382-.761-.382-.421 0-.764-.172-.764-.38 0-.21-.344-.382-.762-.382-.419 0-.762-.172-.762-.382 0-.208-.515-.38-1.144-.38-.629 0-1.144-.172-1.144-.382 0-.222-1.272-.382-3.052-.382-1.777 0-3.049-.158-3.049-.38 0-.247-4.704-.382-13.344-.382-8.643 0-13.347.135-13.347.382Zm-283.674.762c0 .21-.858.382-1.906.382s-1.906.172-1.906.38c0 .21-.514.382-1.143.382-.63 0-1.144.172-1.144.382 0 .208-.344.38-.764.38-.419 0-.762.172-.762.382 0 .211-.261.382-.581.382-.758 0-3.995 3.239-3.995 3.994 0 .32-.171.584-.382.584-.208 0-.379.343-.379.762 0 .418-.172.762-.383.762-.21 0-.382.515-.382 1.144 0 .629-.171 1.144-.379 1.144-.218 0-.382 1.138-.382 2.648 0 1.456-.172 2.753-.382 2.884-.252.155-.38 20.283-.38 59.142 0 39.017.128 58.907.38 58.907.212 0 .382 1.018.382 2.288 0 1.273.169 2.289.382 2.289.208 0 .379.515.379 1.144 0 .63.172 1.145.382 1.145.211 0 .383.343.383.764 0 .419.171.762.379.762.211 0 .382.343.382.762 0 .421.172.764.382.764.209 0 .38.264.38.584 0 .714 2.45 3.229 3.146 3.229.274 0 .748.343 1.05.764.322.447.986.763 1.608.763.583 0 1.059.171 1.059.382 0 .208.515.38 1.144.38.629 0 1.144.171 1.144.382 0 .213 1.018.382 2.288.382 1.272 0 2.287.169 2.287.38 0 .249 5.212.382 14.87.382 9.661 0 14.87-.133 14.87-.382 0-.211 1.018-.38 2.288-.38 1.272 0 2.288-.169 2.288-.382 0-.211.515-.382 1.144-.382.629 0 1.144-.172 1.144-.38 0-.211.478-.382 1.061-.382.622 0 1.286-.316 1.608-.763.302-.421.725-.768.943-.775.613-.019 2.489-1.801 2.489-2.364 0-.28.343-.756.762-1.058.421-.302.764-.853.764-1.226 0-.376.171-.68.379-.68.211 0 .383-.343.383-.762 0-.421.171-.764.382-.764.208 0 .379-.504.379-1.122 0-.615.172-1.227.382-1.357.211-.13.382-1.847.382-3.838 0-2.144.154-3.6.38-3.6.254 0 .382-18.944.382-56.069 0-37.124-.128-56.069-.382-56.069-.224 0-.38-1.398-.38-3.433 0-2.034-.155-3.432-.382-3.432-.21 0-.382-.515-.382-1.145 0-.629-.171-1.144-.379-1.144-.211 0-.382-.476-.382-1.059 0-.623-.316-1.289-.762-1.612-.421-.302-.764-.773-.764-1.048 0-.647-3.26-3.909-3.908-3.909-.274 0-.746-.343-1.048-.764-.322-.446-.988-.762-1.61-.762-.583 0-1.059-.172-1.059-.382 0-.208-.687-.38-1.526-.38-.837 0-1.524-.172-1.524-.382 0-.25-6.101-.382-17.54-.382-11.438 0-17.539.132-17.539.382Zm57.192 152.187h26.691v-29.751c0-19.581-.131-29.751-.382-29.751-.247 0-.38-4.831-.38-13.731 0-8.9-.135-13.731-.382-13.731-.243 0-.382-3.051-.382-8.392 0-5.339.139-8.39.382-8.39.24 0 .382 2.414.382 6.484 0 4.069.142 6.483.38 6.483.242 0 .382 2.799.382 7.63 0 4.831.139 7.628.382 7.628.238 0 .38 2.217.38 5.888 0 3.515.155 5.987.382 6.126.221.138.382 2.293.382 5.172 0 3.037.146 4.937.379 4.937.229 0 .382 1.524.382 3.812 0 2.289.154 3.815.382 3.815.222 0 .38 1.273.38 3.051 0 1.781.16 3.053.382 3.053.215 0 .382 1.073.382 2.456 0 1.352.172 2.563.38 2.693.211.128.382 1.33.382 2.669 0 1.338.172 2.54.382 2.67.208.131.38 1.504.38 3.051 0 1.549.171 2.922.382 3.053.21.128.382 1.426.382 2.883 0 1.511.162 2.646.38 2.646.215 0 .382 1.073.382 2.458 0 1.35.171 2.563.382 2.691.208.131.38 1.428.38 2.884 0 1.51.164 2.647.382 2.647.219 0 .382 1.218.382 2.889 0 4.201-.472 4.011 9.606 3.89l8.503-.103.114-2.195c.065-1.206.28-2.192.479-2.192.199 0 .361-1.192.361-2.648 0-1.455.172-2.753.382-2.883.208-.129.38-1.33.38-2.669s.171-2.54.382-2.671c.21-.13.382-1.341.382-2.693 0-1.382.165-2.456.38-2.456.224 0 .382-1.272.382-3.05 0-1.781.158-3.053.382-3.053.217 0 .38-1.144.38-2.669 0-1.526.164-2.67.382-2.67.217 0 .382-1.145.382-2.671 0-1.524.162-2.668.379-2.668.218 0 .382-1.138.382-2.648 0-1.456.172-2.753.383-2.884.208-.13.379-1.684.379-3.456 0-1.892.158-3.22.382-3.22.234 0 .382-1.778.382-4.577 0-2.796.147-4.577.38-4.577.238 0 .382-2.153.382-5.698 0-3.387.156-5.795.382-5.934.229-.142.38-2.737.38-6.507 0-3.927.144-6.27.382-6.27.245 0 .382-3.687.382-10.298 0-10.045.018-10.299.762-10.299.636 0 .762.254.762 1.524 0 .84-.172 1.527-.38 1.527-.249 0-.382 6.103-.382 17.546s-.133 17.544-.382 17.544c-.24 0-.38 2.67-.38 7.248 0 4.577-.142 7.247-.382 7.247-.249 0-.382 8.772-.382 25.554v25.556h26.691V289.946h-38.129v1.503c0 .826-.172 1.609-.38 1.739-.211.131-.382 1.676-.382 3.433 0 1.758-.172 3.303-.382 3.433-.211.13-.38 1.84-.38 3.815 0 1.973-.172 3.685-.382 3.813-.211.13-.382 1.675-.382 3.433 0 1.759-.172 3.304-.38 3.432-.21.131-.382 1.84-.382 3.815 0 1.975-.172 3.685-.382 3.815-.213.133-.38 1.966-.38 4.195s-.167 4.062-.382 4.195c-.226.14-.382 2.483-.382 5.744 0 3.419-.144 5.509-.38 5.509-.249 0-.382 6.094-.382 17.523 0 11.271-.135 17.606-.382 17.759-.245.151-.38-1.261-.38-3.961 0-2.385-.164-4.296-.382-4.431-.242-.151-.382-5.145-.382-13.731 0-8.587-.137-13.58-.379-13.731-.234-.145-.382-2.985-.382-7.248 0-4.261-.149-7.104-.382-7.246-.211-.13-.38-1.84-.38-3.815 0-1.975-.172-3.684-.382-3.815-.213-.13-.382-1.911-.382-4.027 0-2.273-.151-3.79-.38-3.79-.227 0-.382-1.399-.382-3.433 0-2.035-.156-3.433-.382-3.433-.224 0-.38-1.398-.38-3.433 0-2.034-.155-3.432-.382-3.432-.224 0-.382-1.346-.382-3.271 0-4.787 1.97-4.359-19.99-4.359h-18.901v152.569Zm96.083 0h29.741V289.946H289.17v152.569ZM155.239 313.437c.266.266.483.829.483 1.252 0 .421.172.874.382 1.003.25.155.38 17.422.38 50.562 0 33.296-.128 50.325-.38 50.325-.21 0-.382.266-.382.588 0 .927-1.773 2.463-2.841 2.463-.536 0-.972-.172-.972-.382 0-.209-.344-.38-.762-.38-.593 0-.762-.254-.762-1.145 0-.629-.172-1.144-.382-1.144-.252 0-.382-17.038-.382-50.348 0-33.311.13-50.347.382-50.347.21 0 .382-.442.382-.982 0-2.103 3.239-3.08 4.854-1.465Zm-107.8 151.201h417.884v-12.207H47.438v12.207Z" clip-rule="evenodd"/></svg>