<svg width="512" height="512" fill="none"><path fill="#fff" fill-rule="evenodd" d="M182.279 80.8a190.046 190.046 0 0 1 249.115 102.526 190.048 190.048 0 0 1-103.671 248.64 190.045 190.045 0 0 1-247.26-103.295 190.05 190.05 0 0 1 101.823-247.87m-69.996 99.288a162.24 162.24 0 0 1 35.611-45.021 31.739 31.739 0 0 1 11.06-1.805h.197l15.532 18.021 11.912-1.087 6.235-.571a15.73 15.73 0 0 0 9.692-4.556 15.728 15.728 0 0 1 10.184-4.599l9.818-.585 10.453 11.849a17.338 17.338 0 0 1 2.681 18.868 17.33 17.33 0 0 1-6.646 7.4 17.326 17.326 0 0 1-9.619 2.53l-14.671-.493a5.22 5.22 0 0 0-4.747 2.701 5.218 5.218 0 0 1-6.326 2.398l-24.031-8.548a6.63 6.63 0 0 1-4.373-5.467 6.656 6.656 0 0 0-6.841-5.854l-23.05.776a4.508 4.508 0 0 1-3.703-1.693 4.556 4.556 0 0 0-3.571-1.706 4.547 4.547 0 0 0-3.553 1.742l-12.244 15.7Zm110.241-40.203 3.908-8.45a24.828 24.828 0 0 1 20.659-14.318l5.05-.381a15.944 15.944 0 0 1 14.262 6.771l2.87 4.105a10.168 10.168 0 0 1-.813 12.683 10.175 10.175 0 0 1-12.553 1.988l-4.105-2.328a16.645 16.645 0 0 0-9.909-2.081l-19.369 2.011Zm-117.034 54.563a170.278 170.278 0 0 1 1.848-4.281 21.508 21.508 0 0 0-.282 1.855l-1.975 18.613a52.77 52.77 0 0 0 15.073 42.814l7.173 7.215a27.864 27.864 0 0 0 19.418 8.21 27.881 27.881 0 0 1 27.535 27.381l.212 11.807a22.13 22.13 0 0 0 8.393 16.948 22.154 22.154 0 0 1 8.394 16.646l.818 26.083a23.313 23.313 0 0 0 4.443 12.95 23.188 23.188 0 0 0 35.563 2.398l8.33-8.746a50.57 50.57 0 0 0 13.958-34.716l.113-35.034a39.5 39.5 0 0 1 11.221-27.451l6.969-7.131a21.864 21.864 0 0 0 .064-30.455l-32.699-33.792a5.403 5.403 0 0 1-1.621-3.891 5.404 5.404 0 0 1 1.663-3.873 5.41 5.41 0 0 1 7.759.273l16.97 17.831a27.153 27.153 0 0 0 18.528 8.4l5.178.212a15.336 15.336 0 0 0 11.496-26.147l-17.576-17.619a4.232 4.232 0 0 1 5.974-5.995l7.935 7.836a12.804 12.804 0 0 0 8.936 3.703l6.955.043a29.917 29.917 0 0 1 14.503 3.843 29.918 29.918 0 0 1 10.811 10.404l16.829 27.388a4.445 4.445 0 0 0 8.054-1.093l4.091-14.093a21.123 21.123 0 0 1 3.252-6.602l3.413-4.648c8.323-11.32 24.792-11.595 33.616-1.375a161.848 161.848 0 0 1 8.591 77.403 161.852 161.852 0 0 1-28.557 72.453 161.853 161.853 0 0 1-59.092 50.726 161.848 161.848 0 0 1-151.152-2.965 161.831 161.831 0 0 1-82.75-126.521 161.845 161.845 0 0 1 11.618-77.007m175.329 147.815a8.392 8.392 0 0 1-7.897-5.514 8.387 8.387 0 0 1-.496-3.359l.395-7.075a15.072 15.072 0 0 1 3.054-8.308l2.68-3.527a7.253 7.253 0 0 1 11.772.293 7.251 7.251 0 0 1 1.255 4.327l-.324 10.375a13.17 13.17 0 0 1-1.784 6.207l-1.39 2.398a8.39 8.39 0 0 1-7.265 4.183Z" clip-rule="evenodd"/></svg>