<svg xmlns="http://www.w3.org/2000/svg" width="512" height="512" fill="none"><path fill="#fff" d="M328 412c1-1 3-5 0-12l-9-24c-1-3 2-5 3-3 0 0 17 19 21 28l9 13 45 1-5-6c-32-40-53-62-53-62-6-7-9-9-14-11l-3-1v6l-1 1-47-84c-2-4-5-7-9-10l-5-3-22 52c3 0 6 4 4 7l-20 48h19c7 0 14 2 21 4l5 3s-15 31-15 47l1 9h35l-1-10s21 5 41 7ZM256 97A200 200 0 0 0 95 415c8-3 13-9 16-13l38-47 3-3 5-2 62-78 8-7 19-25 1-2 8-6a6 6 0 0 1 7 0l10 7c5 4 9 8 12 14l38 68 3 3c8 4 13 4 23 15 4 5 25 28 53 63 4 6 9 10 16 13A200 200 0 0 0 256 96ZM110 308l-13-5-8 11v-13l-13-4 13-5v-13l8 11 13-4-8 11 8 11Zm-3 44-4 13-5-13H85l11-8-4-13 11 8 11-8-5 13 11 8h-13Zm2-103 5 13-11-8-11 8 4-13-11-8h13l5-13 4 13h13l-11 8Zm22-29-8-11-13 4 8-11-8-11 13 4 8-11v14l13 4-13 4v14Zm34-48-4 13-4-13h-14l11-8-4-13 11 8 11-8-4 13 11 8h-14Zm43-22-8 11v-13l-13-5 13-4v-14l8 11 13-4-8 11 8 11-13-4Zm55-12 4 13-11-8-11 8 4-13-11-8h14l4-13 4 13h14l-11 8Zm49 10v13l-8-11-13 4 8-11-8-11 13 4 8-11v14l13 4-13 5Zm90 138 13 4 8-11v13l13 5-13 4v13l-8-11-13 5 8-11-8-11Zm-51-101-4-13h-14l11-8-4-13 11 8 11-8-4 13 11 8h-14l-4 13Zm30 35v-14l-13-4 13-4v-14l8 11 13-4-8 11 8 11-13-4-8 11Zm24 21 4-13 5 13h13l-11 8 4 13-11-8-11 8 5-13-11-8h13Zm9 111-5 13-4-13h-13l11-8-5-13 11 8 11-8-4 13 11 8h-13Zm-202-10 13-26-1-2-11 12c-5 5-14 20-16 23l-14 23a2 2 0 0 1 2 2l-12 21c-3 5 2 9 3 7 19-31 30-28 30-28l7-15-1-2c-2-1-5-5 0-15Z"/></svg>