<svg width="128" height="128" fill="none"><path fill="#fff" fill-rule="evenodd" d="M46.169 21.583a46.011 46.011 0 1 1 35.213 85.019 46.007 46.007 0 0 1-59.863-25.008 46.011 46.011 0 0 1 24.651-60.01M29.224 45.62a39.277 39.277 0 0 1 8.622-10.9 7.685 7.685 0 0 1 2.677-.436h.048l3.76 4.363 2.885-.263 1.51-.139a3.808 3.808 0 0 0 2.345-1.103 3.808 3.808 0 0 1 2.466-1.113l2.377-.142 2.53 2.869a4.198 4.198 0 0 1-3.288 6.972l-3.552-.12a1.262 1.262 0 0 0-1.15.655 1.264 1.264 0 0 1-1.53.58l-5.819-2.07a1.606 1.606 0 0 1-1.058-1.323 1.612 1.612 0 0 0-1.657-1.417l-5.58.188a1.093 1.093 0 0 1-.897-.41 1.1 1.1 0 0 0-1.724.008l-2.965 3.801Zm26.69-9.733.946-2.046a6.011 6.011 0 0 1 5.002-3.466l1.222-.092a3.858 3.858 0 0 1 3.453 1.639l.695.994a2.463 2.463 0 0 1-3.236 3.552l-.994-.564a4.03 4.03 0 0 0-2.399-.504l-4.689.487ZM27.58 49.098c.144-.348.293-.694.447-1.036-.03.148-.052.298-.068.449l-.478 4.506a12.772 12.772 0 0 0 3.649 10.365l1.736 1.747a6.745 6.745 0 0 0 4.702 1.988 6.75 6.75 0 0 1 6.666 6.63l.051 2.858a5.358 5.358 0 0 0 2.032 4.103 5.364 5.364 0 0 1 2.032 4.03l.199 6.315a5.643 5.643 0 0 0 5.244 5.444 5.614 5.614 0 0 0 4.441-1.728l2.017-2.118a12.244 12.244 0 0 0 3.38-8.405l.026-8.481a9.563 9.563 0 0 1 2.717-6.647l1.688-1.726a5.294 5.294 0 0 0 .015-7.373l-7.917-8.182a1.308 1.308 0 0 1 .964-2.244 1.311 1.311 0 0 1 .925.43l4.108 4.318a6.574 6.574 0 0 0 4.486 2.033l1.254.052a3.713 3.713 0 0 0 2.783-6.33l-4.255-4.266a1.025 1.025 0 0 1 1.446-1.452l1.921 1.898a3.1 3.1 0 0 0 2.164.896l1.683.01a7.24 7.24 0 0 1 6.13 3.45l4.074 6.63a1.076 1.076 0 0 0 1.95-.264l.99-3.412a5.112 5.112 0 0 1 .787-1.598l.827-1.126c2.015-2.74 6.002-2.807 8.138-.333a39.176 39.176 0 0 1-19.14 48.562 39.186 39.186 0 0 1-36.595-.718 39.18 39.18 0 0 1-17.221-49.275m42.448 35.787a2.034 2.034 0 0 1-2.032-2.148l.096-1.713c.039-.73.297-1.43.739-2.012l.649-.853a1.755 1.755 0 0 1 3.154 1.118l-.079 2.512a3.19 3.19 0 0 1-.432 1.503l-.336.58a2.033 2.033 0 0 1-1.759 1.013Z" clip-rule="evenodd"/></svg>