<svg xmlns="http://www.w3.org/2000/svg" width="512" height="512" fill="none"><path fill="#fff" d="M443 256c0-48 0-83-4-109-3-26-10-41-21-53-12-11-27-18-53-21-26-4-61-4-109-4s-83 0-109 4c-26 3-41 10-53 21-11 12-18 27-21 53-4 26-4 61-4 109s0 83 4 109c3 26 10 41 21 53 12 11 27 18 53 21 26 4 61 4 109 4s83 0 109-4c26-3 41-10 53-21 11-12 18-27 21-53 4-26 4-61 4-109Zm32 0c0 47 0 84-4 113-4 30-12 53-31 71-18 19-41 27-71 31-29 4-66 4-113 4s-84 0-113-4c-30-4-53-12-71-31-19-18-27-41-31-71-4-29-4-66-4-113s0-84 4-113c4-30 12-53 31-71 18-19 41-27 71-31 29-4 66-4 113-4s84 0 113 4c30 4 53 12 71 31 19 18 27 41 31 71 4 29 4 66 4 113Z"/><path fill="#fff" d="m126 213 2 9 7 7 10 7a321 321 0 0 1 23 14l10 9 7 12 3 15v1c0 6-1 12-3 16-1 5-3 9-6 12l-8 8a50 50 0 0 1-22 8l-10 1h-1l-17-2-12-5a37 37 0 0 1-17-25l-1-8 1-7a13 13 0 0 1 9-7 20 20 0 0 1 17 2l5 5 1 7c0 5 2 9 4 11 3 2 6 3 11 3h6l5-3 3-5 1-8c0-4-1-7-3-10-1-4-4-6-7-9l-9-8a415 415 0 0 0-23-15l-10-9-7-10-2-13v-2c0-8 1-14 3-20 2-5 5-9 9-12 4-4 9-6 15-7l20-2h3l17 2 12 6 8 8a36 36 0 0 1 6 16v6a14 14 0 0 1-5 11l-5 3-7 1-5-1-5-3-3-4-2-4c0-6-1-10-3-13-2-2-5-3-10-3h-6l-5 2-3 4-1 9ZM197 218c0-7 1-13 3-18l8-13 11-8a57 57 0 0 1 22-6h10a93 93 0 0 1 16 2l12 4 11 8 7 13c3 5 4 11 4 18v67a52 52 0 0 1-8 27l12 10 2 4 1 5a12 12 0 0 1-3 9l-5 3h-4a13 13 0 0 1-9-3l-13-12a69 69 0 0 1-23 4h-4a99 99 0 0 1-17-2l-11-5c-4-2-8-4-11-8l-8-13c-2-5-3-11-3-19v-67Zm37 72 2 7 5 5c2 2 5 2 8 2 4 0 7 0 8-2a15 15 0 0 0 7-12v-74l-2-7-5-5-8-2-8 2-5 5-2 7v74ZM318 199v-9l2-8c1-3 2-5 5-6l9-2h38c9 0 17 2 24 6l9 5 8 8 6 12a50 50 0 0 1 2 20l-2 7-3 7a33 33 0 0 1-13 14l-10 4 8 4a29 29 0 0 1 12 16c2 4 2 8 2 13v16l1 2 1 2 4 5v3l-2 6-4 5-5 2a27 27 0 0 1-15 0l-6-4c-3-1-4-3-6-5l-2-8v-33l-3-7-5-5-9-2h-12v38l-1 10-2 8c-1 2-2 4-5 6l-10 2-9-2c-3-2-4-4-5-6l-2-8V199Zm49 43a23 23 0 0 0 14-5l3-4 2-5a27 27 0 0 0 0-14l-2-5-3-4-4-2c-2-2-6-2-9-3h-16v42h15Z"/></svg>