<svg width="512" height="512" fill="none"><g clip-path="url(#a)"><path stroke="#fff" stroke-linecap="round" stroke-linejoin="round" stroke-width="42.667" d="M386.371 362.667V256m-104.297 80 26.074 26.667M21.333 336c0 7.073 2.748 13.855 7.637 18.856 4.89 5.001 11.522 7.811 18.438 7.811h52.148c6.915 0 13.547-2.81 18.437-7.811 4.89-5.001 7.637-11.783 7.637-18.856v-53.333c0-7.073-2.747-13.855-7.637-18.856-4.89-5.001-11.522-7.811-18.437-7.811H47.408c-6.916 0-13.548-2.809-18.438-7.81-4.89-5.001-7.636-11.784-7.636-18.857V176c0-7.072 2.747-13.855 7.636-18.856 4.89-5.001 11.522-7.811 18.438-7.811h52.148c6.915 0 13.547 2.81 18.437 7.811 4.89 5.001 7.637 11.784 7.637 18.856m260.741 80V149.333h78.222c6.915 0 13.547 2.81 18.437 7.811 4.89 5.001 7.637 11.784 7.637 18.856v53.333c0 7.073-2.747 13.856-7.637 18.857-4.89 5.001-11.522 7.81-18.437 7.81h-78.222Zm52.148 0 52.148 106.667M256 149.333c13.831 0 27.095 5.62 36.874 15.621 9.78 10.002 15.274 23.568 15.274 37.713v106.666c0 14.145-5.494 27.711-15.274 37.713-9.779 10.002-23.043 15.621-36.874 15.621-13.83 0-27.094-5.619-36.874-15.621-9.78-10.002-15.274-23.568-15.274-37.713V202.667c0-14.145 5.494-27.711 15.274-37.713 9.78-10.001 23.044-15.621 36.874-15.621Z"/></g><defs><clipPath id="a"><path fill="#fff" d="M0 0h512v512H0z"/></clipPath></defs></svg>