<svg width="512" height="512" fill="none"><path fill="#fff" fill-rule="evenodd" d="M103.19 259.166c-.496-36.878 12.288-70.811 38.101-97.364a133.021 133.021 0 0 1 94.684-40.779 132.22 132.22 0 0 1 75.606 22.038c4.791 3.174 9.628 7.255 14.598 11.45 11.876 10.021 24.513 20.686 39.11 21.143 7.643.239 15.445-1.01 22.938-2.438 3.203-.61 8.485-1.849 15.035-3.385 28.727-6.736 81.883-19.201 91.479-9.581.876.88 1.282 1.94 1.258 3.185-.073 3.485-5.488 8.278-8.019 10.488-9.433 8.244-19.95 15.585-30.319 22.822-2.773 1.936-5.536 3.864-8.266 5.801-4.999 3.549-10.051 7.061-15.095 10.568-11.107 7.721-22.226 15.452-32.936 23.674-10.096 7.752-19.68 16.167-29.135 24.68-2.97 38.078-17.043 70.751-46.537 95.954a134.364 134.364 0 0 1-97.842 32.511 136.084 136.084 0 0 1-58.686-18.41l-.406-.236-.248-.142-.358-.206c-3.809-2.188-10.708-6.151-11.18-9.994.345-2.074 2.639-4.047 4.309-5.102l.487-.311c12.718-8.123 26.28-16.784 42.045-13.531 3.26.611 6.36 1.397 9.448 2.18 4.013 1.018 8.005 2.031 12.301 2.646 46.798 6.708 91.399-25.297 102.025-70.994.495-2.126.796-5.836 1.125-9.896.594-7.315 1.281-15.774 3.359-18.195 4.333-5.051 12.061-9.573 18.894-13.571 2.446-1.431 4.777-2.795 6.797-4.093 14.27-8.962 29.111-16.527 44.007-24.121 5.865-2.99 11.739-5.984 17.59-9.07 1.095-.581 2.732-1.434 4.698-2.459 8.535-4.449 23.274-12.131 26.78-14.796 4.539-2.289 9.747-5.484 13.541-8.85-4.925 1.194-10.424 3.326-15.467 5.28-1.074.416-2.14.83-3.162 1.219a753.983 753.983 0 0 0-72.142 33.28 4336.525 4336.525 0 0 0-101.31 55.119 3627.018 3627.018 0 0 1-57.962 32.151c-1.791.987-3.578 1.974-5.364 2.96l-.077.043-.024.013c-8.441 4.663-16.86 9.314-25.522 13.824-38.886 20.265-81.017 36.027-123.103 48.071-9.994 2.86-30.136 7.347-39.519 4.279-15.02-4.913 9.946-30.393 16.917-37.508.543-.554.976-.996 1.273-1.309a2665.668 2665.668 0 0 1 34.55-35.712c7.07-7.211 24.6-25.118 29.724-33.326Zm128.951-95.097c28.251-1.71 55.658 9.404 74.451 30.726 7.082 8.035 11.228 15.615 16.097 25.062-12.148 5.895-27.316 14.705-40.292 22.242-2.864 1.663-5.62 3.265-8.215 4.759a1747.844 1747.844 0 0 1-54.737 30.307c-20.284 9.895-42.219 19.34-65.185 16.588-4.663-10.305-6.988-18.963-7.907-30.38a92.596 92.596 0 0 1 22.089-68.087c16.239-19.014 38.996-29.282 63.699-31.217Z" clip-rule="evenodd"/></svg>