<svg width="128" height="128" fill="none"><path fill="#fff" fill-rule="evenodd" d="M18.567 67.753c1.32 4.614 4.876 8.165 11.983 15.272l8.418 8.418C51.34 103.822 57.524 110 65.206 110c7.686 0 13.869-6.182 26.238-18.551C103.818 79.074 110 72.892 110 65.205c0-7.682-6.182-13.869-18.552-26.238l-8.417-8.418c-7.112-7.107-10.663-10.663-15.277-11.983-4.614-1.325-9.513-.193-19.306 2.07L42.8 21.938c-8.243 1.9-12.364 2.852-15.189 5.672-2.824 2.82-3.767 6.95-5.671 15.189l-1.307 5.648c-2.258 9.798-3.385 14.693-2.065 19.306Zm36.795-25.506a9.28 9.28 0 0 1-6.525 15.956 9.277 9.277 0 1 1 6.525-15.956ZM96.43 64.234 64.327 96.342a3.45 3.45 0 0 1-4.876-4.88L91.55 59.354a3.451 3.451 0 0 1 4.88 4.88Z" clip-rule="evenodd"/></svg>